<?xml version="1.0" encoding="UTF-8"?>
<svg id="loader-logo" viewBox="0 0 733.93 660.66" xmlns="http://www.w3.org/2000/svg">
  <!-- Outlines / gold strokes / etc -->
  <g class="outline-layer">
    <path class="cls-1" d="M706.66,297.37l27.02,11.14c.76.68-.46.51-.85.38-6.49-2.08-12.85-4.88-19.3-7.11-88.55-30.64-181.63-49.28-275.52-53.28-17.79-.76-35.43-.79-53.31-.98-24.88-.26-49.88-.93-74.85.51-97.21,5.61-196.49,28.87-288.01,60.95-6.66,2.34-13.28,5.25-20,7.36-.46.15-1.56.65-1.84.09,16.03-8.04,32.59-15.09,49.38-21.42,9.95-100.57,68.77-192.51,154.18-245.42,114.34-70.83,260.17-65.38,368.75,13.73,75.4,54.94,125.07,140.74,134.35,234.05ZM699.84,294.59c-2.66-28.95-10.11-58.01-20.89-84.94C624.12,72.63,483.07-10.19,335.83,8.58,199.68,25.94,87.66,129.95,60.15,264.26c-1.73,8.45-3.85,18.69-4.48,27.21-.09,1.19.65.74,1.48.52,1.47-.39,12.34-4.48,12.69-5.07,12.03-92.59,67.4-176.05,146.97-224.07C323.18-1.35,458.35,4.41,558.67,77.44c68.37,49.77,114.41,126.3,125.29,210.59l15.88,6.55ZM363.36,237.95v-108.48c-20.75,13.25-49.92,11.51-61.92-12.24,0-.53,1.43-.24,1.92,0,1.46.73,4.93,4.32,6.86,5.62,12.72,8.58,27.51,10.19,41.88,4.7,3.96-1.51,7.92-3.91,11.27-6.49v-17.04l-10.55,6.97c-18.36,12.71-64.28,7.81-55.08-22.92,2.66-8.87,16.76-11.02,19.78-2.28,1.69,4.89-.35,8.28.28,12.2.94,5.86,12.16,3.41,16.18,2.31,21.32-5.84,37.81-29.75,44.99-49.57h28.56v188.64l12,.48V56.03l5.77,3.11.92,181c27.11,2.01,54.33,3.52,81.39,6.45,59.46,6.45,118.56,18.32,174,40.8-14.33-117.37-98.9-216.64-210.83-252.61C295.4-21.58,108.59,89.59,74.63,269.62c-.25,1.33-3.23,16.83-2.38,16.82,48.95-17.17,99.53-30.12,150.86-38.26,30.68-4.86,61.42-7.85,92.49-9.27.95-.04,1.88-.54,2.87-.49l44.9-.46Z"/>
    <path class="cls-1" d="M333.12,406.91l17.76-17.76-53.03,2.4c-91.71,7.99-181.54,30.29-267.6,61.91l14.55-7.28c104.06-45.7,217.4-67.53,331.26-64.7,93.42,2.32,189.59,9.6,277.34,43.3l49.32,20.51c-85.58-30.93-175.65-50.22-266.88-54.71l5.77,8.39c-1.1,1.69-1.77,3.68-2.78,5.4-.23.4.14.8-.82.61l-11.04-14.88h-6.96l16.32,16.8h-103.2Z"/>
    <path class="cls-1" d="M682.6,441.01l4.91,1.04.81,1.07c-24.8,68.79-73.1,128.21-134.91,167.03-87.26,54.8-195.15,65.64-291.92,29.44-89.09-33.33-161.52-105.91-193.83-195.47l4.1-3.15.96.02c2.18,5.23,4.03,10.61,6.26,15.82,59.61,139.41,206.32,219.71,356.88,192.75,112.32-20.11,208.58-101.11,246.74-208.55Z"/>
    <path class="cls-1" d="M396,272.51l-6.73,7.88,10.09,25.72c1.27.06,3.12-.5,2.8-2.04l-9.37-23.17,7.06-7.21,1.9.27-6.5,6.73,8.42,23.02,6.23-3.36,4.81,12h-8.4c-.27,0-3.5,1.35-3.53,1.67l11.08,29.67,9.02,7.54-31.2-.48,8.2-7.03-6.77-17.93c-.33-.26-5.48,5.16-6,5.75-1.32,1.49-3.6,5.34-4.76,6.28-.44.35-1.36.86-1.71.21l11.3-13.21-.26-2.86c-1.27-1.15-12.74,11.13-12.96,13.44l-10.79-13.43c-3.27,5.08-6.21,12.71-5.47,18.9.65,5.41,6.51,10.58,10.02,14.45-.46.7-.92.66-1.65.74-5.78.64-14.47.32-20.64.48-3.92.1-7.85-.2-11.76.24l-.98-1.21,31.68-.97c-1.74-3.02-4.68-5.14-6.33-8.31-4.23-8.15.03-17.78,3.32-25.53l-3.22-2.63c-1.85,7.88-8.45,18.53-3.48,26.28,1.54,2.4,4.3,3.98,5.88,6.36l-28.96.95-2.72,5.06c-9.74,1.28-19.69,1.32-29.52,2.16-11.45.98-24.37,3.45-35.55,3.86-.95.03-1.73-.29-2.61-.51-.07-.74,1.21-.81,1.73-.9,8.23-1.44,18.38-2.15,26.83-2.93,12.69-1.17,25.45-1.82,38.18-2.62l1.35-4.23c-4.57-5.55-9.46-11.24-11.93-18.11.61.37,1.5.3,1.95.81,1.31,1.5,3.16,5.77,4.57,7.79.81,1.16,6.15,8.54,6.74,8.65,12.9-7.45,17.94-21.84,22.26-35.3.13-3.03-7-3.09-9.01-3.91-.53-.21-.75.04-.54-.78l5-9.41c.71-.17,5.35,4.31,6.61,4.92,1.57.77,2.53-1.04,2.05-2.03-.72-1.49-6.78-4.2-6.5-5.52l1.47-.53,6.22,3.9,8.56-21.74c.26-1.78-4.63-5.11-5.92-6.37-.47-.46-.9-.63-.73-1.43h31.2ZM376.32,285.47l-10.48,25.13,12.61,13.73c1.26-1.06,2.1-1.5,1.36-3.21-1.15-2.64-9.94-10.03-10.04-10.92l7.91-21.49-1.36-3.24ZM379.68,292.67l-1.06.61-6.53,16.36,9.73,10.85,6.42-6.37-8.55-21.45Z"/>
    <path class="cls-1" d="M217.93,325.32c8.1,13.9,19.44,26.26,33.12,34.79-6.55,3.61-13.19,7.34-18.48,12.71-5.17-13.81-10.81-27.5-19.01-39.79l-12.43,5.26,4.41,22.21,12.87,9.44-32.15,6.02-.97-1.21,29.28-5.29-10.3-8.18-4.56-23.31.45-.91,12.48-5.28-2.14-3.06-15.13,5.23,5.17,26.27,7.79,6.36-26.88,5.28,6-8.19-3.6-20.14-8.15,2.88c-.21-.99.49-1.11,1.1-1.53,1.17-.79,5.94-2.56,6.37-3.26l-.28-2.89-10.08,3.36,1-7.16,7.36-1.43-5.46-29.5-7.22-2c14.74-11.26,40.05-20.01,57.92-12.33,21.11,9.08,7.96,30.91-8.49,35.61ZM199.21,327.71c11.31-3.54,28.87-11.96,22.65-26.73-4.84-11.49-24.5-10.4-33.14-4.15l5.98,31.87,2.8-.46-4.79-29.82c7.92-3.72,19.41-5.62,26.19,1.2l-11.26-3.14c-2.36-.3-11.84,1.03-12.98,2.89s4.65,24.37,4.57,28.33Z"/>
    <path class="cls-1" d="M516.97,359.39l9.13-5.13,9.11-63.74-6.24-8.4c21.45,4.13,54.86,2.86,61.78,29.17,3.37,12.81-.94,31.88-9.48,42.09-16.38,19.59-43.02,7.61-64.31,6.01ZM542.88,358.91c9.12,1.36,16.59.56,23.06-6.47,9.42-10.24,14.95-36.05,8.86-48.72-4.46-9.28-16.15-12.41-25.65-12.94l-10.58,67.17,2.88.49,10.03-63.56c6.68-.47,14.77.95,19.25,6.44-1.75-.58-3.25-1.75-4.96-2.48-4.12-1.75-8.79-3.37-13.24-2.27l-9.65,62.36Z"/>
    <path class="cls-1" d="M475.2,276.36l-9.59,5.03,26.88,59.28c1.04.78,1.24-6,1.23-6.71l-23.28-51.08c.13-.57,8.46-4.6,9.54-4.88.86-.22.88-.21,1.46.52.16.74-.61,1.02-1.1,1.29-1.03.58-7.3,2.94-7.54,3.27l21.6,47.51c.51-10.52,2.53-20.96,3.36-31.44.32-4.05.9-8.83-.22-12.74-1.26-4.41-5.76-6.24-8.9-9.1l30.24,3.36-10.31,5.28-3.84,7.2-7.93,63.84-9.35-.97-1.43-.97-25.7-56.62-.95.71-2.42,41.79c.33,3.81,1.89,6.97,4.34,9.82-.63.57-2.47-1.79-2.79-2.24-3.22-4.45-3.15-10.95-2.96-16.23.43-12.15,2.23-24.77,2.91-36.96l-3.39-6.97-2.42,36.22c.21,11.68-2.78,24.44,11.32,28.56l4.54,6.25-34.07-2.65-.97-1.18,31.68,1.91-2.61-3.39-29.07-2.37,6.2-3.15c3.53-1.84,5-5.76,5.96-9.4,2.49-18.95,2.64-38.2,4.15-57.27l-8.15-7.93,33.6,2.4Z"/>
    <path class="cls-1" d="M634.46,304.32c39.09-4.41,53.62,34.43,34.1,64.34-19.2,29.41-63.31,14.45-65.18-19.11-1.07-19.12,10.12-42.85,31.09-45.22ZM642.64,309.59c-19.48.63-27.47,33.72-26.34,49.11,1.4,19.09,22.23,27.11,34.82,11.75,7.66-9.35,15.37-35.92,11.9-47.43-2.61-8.67-11.59-13.71-20.39-13.42Z"/>
    <path class="cls-1" d="M120.39,305.78c42.44-3.86,57.57,70.86,11.16,79.32s-67.18-74.23-11.16-79.32ZM117.5,311.53c-27.1,3.23-18.58,40.55-9.26,56.52,11.1,19.01,35.98,15.57,37.71-6.47,1.3-16.56-5.92-52.72-28.44-50.04Z"/>
    <path class="cls-1" d="M278.88,539.39l-5.51-9.61c-6.67-8.41-21.67-2.95-18.17,8.57l29.67,40.89c7.96,8.28,14.25,7.54,23.63,2,14.94-8.83,17.49-31.96-3.44-33.68l-.55.99c1.98,5.94,1.51,15.04-5.92,16.55-13.43,2.73-8.58-11.81-1.95-16.35-2.47-1.51-7.54-.36-9.77,1.27-4.25,3.13-2.67,9.23-1.65,13.51.15.61.93.91-.34.82-12.7-12.08,4.09-28.27,16.87-18.33,18.65-5.7,26.86,14.63,18.31,29.52-11.86,20.67-33.1,15.72-49.09,3.19-17.75-13.91-30.11-34.2-42.36-52.79-21.62-1.16-21.51,26.27-7.34,36-11.83-3.9-19.82-12.69-15.93-25.77,1.98-6.65,9.9-15.09,17.37-14.55.7-.59-3.5-4.77-4.06-5.29-6.66-6.17-15.08-10.02-24.1-6.8-7.2,2.57-9.53,9.32-7.59,16.41s7.56,6.12,13.68,5.28c-11.37,12.61-26.64-4.84-17.49-17.25,1.47-1.99,8.01-7.43,10.29-8.43,14.68-6.36,29.22,1.33,35.59,15.04,10.55,0,17.41,8.09,24.17,14.95-.41-4.84,1.37-10.06,5.99-12.24,5.66-2.67,14.09-2.26,17.54,3.59.52.88,2.14,4.79,2.14,5.54v6.96ZM282.72,583.55l-9.03-11.37c-11-16.03-20.03-35.76-38.97-43.83,13.42,20.77,25.89,42.44,48,55.2ZM299.85,549.52c-3.83,2.47-7.57,6.05-6.46,11.13l2.16,2.16c7.02,2.09,9.1-10.08,4.3-13.29Z"/>
    <path class="cls-1" d="M478.56,531.95c1.66-12.36,19.4-13.69,24.38-3.26l1.53,6.86c.03-.54.35-1.06.71-1.45,5.95-6.55,13.3-13.51,22.77-13.48,5.57-13.83,20.81-21.36,35.09-15.07,4.69,2.07,11.77,9.46,12.74,14.62,2.17,11.52-11.71,21.46-19.94,11.07,6.92,1.17,12.89,1.29,13.87-7.02,1.98-16.8-15.49-19.25-26.98-11.62-1.81,1.2-6.95,5.65-8.03,7.33-.38.59-.59.95-.46,1.7,7.79-.13,14.92,7.89,17.02,14.9,3.8,12.74-4.18,21.32-15.58,25.41,4.35-4.45,8.06-8.21,9.07-14.68,1.9-12.09-3.09-21.92-16.43-21.23-11.53,17.05-22.47,35.55-37.99,49.37-16.91,15.06-43.77,23.5-54.24-3.38-5.6-14.39,3.14-31.63,19.69-25.92,12.61-10.14,29.3,6.15,16.78,18.24-1.27.09-.48-.2-.34-.82,2.49-10.38.64-16.58-11.42-15.01,3.55,2.64,8.25,10.2,6.13,14.53l-2.26,2.05c-11.86,2.26-14.4-8.22-11.55-17.54-19.58.61-19.36,22.14-6.4,32.08,8.98,6.88,17.21,8.49,25.59-.16l29.42-41.14c2.02-4.55-.46-9.78-4.94-11.66-7.62-3.2-12.24,1.41-15.93,7.59l-2.31,4.65c.21-2.2-.29-4.83,0-6.96ZM522.24,528.36c-1.23-.95-10.99,6.6-12.49,7.91-14.82,13.01-21.28,32.82-35.03,46.8.7.59,10.08-6.7,11.27-7.69,15.79-13.09,25.02-30.25,36.25-47.02ZM457.01,549.5c-3.71,4.28-1.83,15.54,5.26,13.19,5.71-1.88-.73-12.86-5.26-13.19Z"/>
    <path class="cls-1" d="M284.7,350.7c.85-.09,3.52.7,3.32-.67l-6.27-62.91,6.5-7.88.48,1.91-5.26,5.78,5.92,63.06c13.62,1.56,25.48-4.85,26.69-19.4,3.81,7.54,7.44,15.49,13.68,21.36l-65.76,5.99,6.95-7.68-6.58-61.56c-.18-.72-.32-1.46-.86-2.02-1.5-1.53-7.8-4.07-8.87-5.53l.55-.9,30.89-3.42-8.18,10.3,6.8,63.57Z"/>
    <path class="cls-1" d="M667.2,434.27c.54.56-3.03,9.11-3.61,10.54-50.65,125.23-179.27,203.44-314.38,191.53-118.39-10.44-221.35-89.53-262.79-200.4l1.19-.73.95.5c11.67,31.1,28.33,60.36,49.22,86.14,87.18,107.58,236.81,143.81,364.15,87.22,75.13-33.39,134.9-96.82,163.41-174.03l1.86-.77Z"/>
    <path class="cls-1" d="M646.08,473.16c.11.84-1.09.45-1.67.48-3.2.13-6.43-.12-9.62-.02-58.24,1.85-116.39,2.25-174.72,2.88-6.88.07-14.18,1.16-21.12.52-3.03-.28-2.63-1.31-4.58-2.62-3.49-2.35-7.21-4.02-11-5.8,27.42-.22,54.91-.52,82.35-.26,26.66.25,53.49,1.29,80.16,1.44l60.22,3.38Z"/>
    <path class="cls-1" d="M331.68,468.84l-5.72,3.15-5.81,4.75c-16.64.32-33.47.43-50.17.27-46.67-.45-93.55-1.8-140.12-3.88-5.64-.25-11.72-.04-17.33-.43-.82-.06-1.59.05-2.13-.75l221.28-3.11Z"/>
    <polygon class="cls-1" points="489.6 419.39 495.75 419.49 508.32 440.03 508.32 420.11 514.56 419.39 514.56 451.07 507.6 450.6 495.36 431.39 495.36 451.07 489.6 451.07 489.6 419.39"/>
    <path class="cls-1" d="M435.74,419.05c8.7-.95,16.28,4.17,17.34,13.12,1.5,12.79-6,21.44-19.17,19.17-15.5-2.67-15.83-30.37,1.84-32.29ZM435.72,424.79c-5.83,1-7.14,8.08-6.54,13.03,1.32,11.01,16.06,11.33,17.22.05.79-7.66-1.66-14.62-10.68-13.08Z"/>
    <path class="cls-1" d="M265.92,428.99h-6.72c.57-5.69-10.72-5.47-11.06-1.65l.47,1.45c2.72,4.07,14.47,1.58,17.54,9.82,5.74,15.41-24.45,18.41-25.22,2.68l6.27-1.26c.82,6.19,8.04,8.27,12.43,4.03,2.92-6.24-6.16-6.02-10.16-7.5-5.2-1.92-9.14-5.91-6.68-11.75,3.94-9.38,23.4-7.5,23.13,4.18Z"/>
    <path class="cls-1" d="M331.68,451.07h-7.2l-2.45-7.14-12.61-.09-2.67,7.01-6.74.22,12.69-31.71,5.31.03,1.15.77,12.53,30.91ZM319.68,438.59l-3.85-11.04c-2.21,3.06-3.28,7.41-4.31,11.04h8.16Z"/>
    <path class="cls-1" d="M430.65,526.54c0,28.62-23.2,51.82-51.82,51.82s-51.82-23.2-51.82-51.82,23.2-51.82,51.82-51.82,51.82,23.2,51.82,51.82ZM429.7,526.55c0-28.09-22.77-50.86-50.86-50.86s-50.86,22.77-50.86,50.86,22.77,50.86,50.86,50.86,50.86-22.77,50.86-50.86Z"/>
    <polygon class="cls-1" points="372.48 419.87 372.48 445.79 388.32 445.79 388.32 451.07 366.24 451.07 366.24 419.87 372.48 419.87"/>
    <path class="cls-1" d="M227.08,326.79c-.87,1.2,5.37,9.53,6.5,10.95,7.81,9.85,17.63,17.49,28.99,22.85-9.36,3.51-17.94,8.85-25.73,15.08l-1.14-.68c0-.9,10.55-8.02,12.15-8.96,3.09-1.82,7.62-3.35,10.26-5.08.46-.3.87.06.62-1.07-14.54-6.49-25.76-19.19-34-32.52v-1.02c13.65-6.32,23.72-21.28,11.45-34.39.79-.67,2.18,1.15,2.64,1.68,10.81,12.43.9,27.48-11.73,33.16Z"/>
    <path class="cls-1" d="M519.45,365.07l-.56-1.35c10.05.66,19.97,3.35,30,4.31,19.71,1.89,34.79-3.39,42.89-22.39,5.44-12.75,8.29-31.74-1.37-43.14l.23-.71c13.77,13.41,6.5,42.82-4.57,55.9-16.82,19.88-44.63,9.42-66.62,7.37Z"/>
    <path class="cls-1" d="M415.55,302.88c.64.81,2.2,6.23,2.94,7.87,1.13,2.53,2.54,4.96,3.92,7.35-.69.5-9.38-1.55-11.28-1.48-.77.03-2.21-.04-2.09,1.16l9.99,26.87,13.46,12.34c-1.23.07-2.36-.44-3.58-.49-9.43-.41-19.55.17-28.84-.44-1.48-.1-3.79-.34-5.02-1.22l33.12.24-10.76-10.11-10.82-28.53c3.82-2.48,8.73-.44,12.95-.24l-5.76-14.4c.06-.08,1.66.95,1.78,1.09Z"/>
    <path class="cls-1" d="M120.01,388.67c-.12-.82,1.14-.51,1.67-.47,5.28.41,8.42.47,13.69-.72,30.17-6.81,36.41-41.19,22.16-65.36-5.74-9.74-10.87-12.41-20.86-16.58-.59-.25-1.51-.89-.11-.86,25.77,5.53,35.65,40.97,25.91,62.86-7.26,16.31-25.14,24.63-42.46,21.13Z"/>
    <path class="cls-1" d="M619.21,381.48c2.17.81,4.09,2.24,6.25,3.11,26.23,10.59,49.09-5.44,54.87-31.52,2.98-13.46,1.42-28.48-9.27-38.08l.23-.71c21.76,17.74,11.2,57.43-10.96,70.16-12.57,7.22-30.02,6.57-41.12-2.96Z"/>
    <path class="cls-1" d="M520.8,285.96c-.83,2.02-3.25,1.54-4.8,2.16-3.56,1.42-4.77,2.98-5.83,6.65l-8.57,67.99c-3.71-1.11-9.13-.48-12.61-1.54-.52-.16-1.16-.78-1.3-1.33l12.26,1.31.63-.67c2.43-18.3,3.83-36.79,6.37-55.07,1.28-9.21,1.41-20.25,13.86-19.49Z"/>
    <circle class="cls-1" cx="194.04" cy="444.7" r="3.54"/>
    <circle class="cls-1" cx="568.69" cy="444.7" r="3.54"/>
    <path class="cls-1" d="M492.96,183.23c1.71-2.07,4.19-3.3,6-5.27,8.19-8.9,3.88-17.19-6-21.6,3.43,5.24.33,21.61-6.96,21.64-3.99.01-8.74-4.58-10.22-8.07-3.64-8.62,3.92-15.36,9.49-20.76-20.33-13.86-37.96,5.43-33.95,26.5,1.21,6.37,7.76,19.94,13.94,22.54,5.4,2.28,14.01,1.58,19.63.25,20.44-4.83,41.36-13.94,61.82-19.3,7.06-3.86,8.68-11.06,4.43-17.87-5.12-8.2-13.09-7.95-21.35-4.81-2.99,1.14-5.6,2.95-8.52,4.19,5.87-11.06,17.26-17.3,28.33-8.4,6.41,5.16,9.92,12.04,6.17,20.11-.91,1.96-2.57,3.18-3.3,5.1,12.53-2.9,27.63-5.31,38.63,2.89,10.92-5.99,27.24-7.83,38.31-1.35s16.91,16.02,18.09,28.95c2.06,22.49-30.16,30.27-33.59,6.48,5.76,5.29,11.99,11.76,19.68,5.53,8.81-7.13,11.35-16.57,3.82-25.92-9.63-11.96-26.12-11.4-39.83-8.41,3.53,3.56,6.26,6.82,7.65,11.78,5.79,20.6-8.01,39.08-29.91,36.15l-9.42-2.33c23.16,1.68,46.89-28.67,21.73-44.56-8.14,2.29-15.9,5.83-23.89,8.57-29.23,10.04-83.79,26.59-108.97,1.91-12.47-12.23-13.03-35.1-1.7-48.25,9.71-11.26,29.02-12.96,36.81,1.14,22.45-1.29,27.62,31.34,3.04,33.19ZM489.08,154.96c-7.27-.36-15.38,14.4-6.95,17.75,9.26,3.68,10.49-12.38,6.95-17.75ZM578.88,183.72c-32.79-6.39-60.88,13.18-91.29,20.31-1.88.44-3.81.62-5.68,1.05-.53.12-1.55,0-1.43.72,7.93.4,15.82.63,23.75,0,23.28-1.86,49.63-11.75,71.4-20.28,1.04-.41,2.7-.77,3.24-1.79Z"/>
    <path class="cls-1" d="M193.92,231.24l-9.42,2.33c-26.77,4.53-40.33-29.16-22.29-46.77.4-.39.69-.42.51-1.16-9.03-1.86-18.11-3.07-27,.11-12.88,4.62-21.56,18.99-11.41,30.85,8.64,10.1,14.6,5.82,22.57-2.17-3.33,24.02-34.86,16.04-32.58-6.91,1.21-12.23,5.93-20.68,16.12-27.56,11.14-7.52,27.49-5.96,38.8.4,10.7-8.1,25.46-5.87,37.67-2.89-.92-2.13-2.52-3.68-3.44-5.91-3.27-7.97.11-14.21,6.32-19.29,10.67-8.73,22.23-2.87,27.36,8.41-8.26-4.97-19.87-10.41-27.55-1.4-6.21,7.28-4.42,17.26,4.74,20.62,19.51,4.87,39.29,14,58.72,18.56,6.09,1.43,15.05,2.26,20.6-1.21,4.96-3.1,10.86-15.92,11.93-21.67,3.3-17.73-9.7-38.63-29.4-28.44-.98.51-4.51,2.01-3,3.19,9.05,6.58,14.27,18.08,3.29,25.91s-15.43-12.93-11.48-19.87c-3.86,1.46-8.75,5.57-9.75,9.68-1.98,8.1,4.84,12.29,9.75,17.19-23.98-2.04-19-34.73,3.28-33.19,5.53-12.27,22.05-12.52,31.72-4.92,13.71,10.78,15.32,35.03,5.04,48.64-21.64,28.66-76.76,12.71-105.09,2.93-9.13-3.15-18.06-7.21-27.25-10.01-9.35,6.45-13.83,15.99-8.27,26.81s16.88,18.29,29.53,17.76ZM269.11,154.95c-2.74,4.16-3.45,13.87.97,17.17,3.01,2.25,6.86.71,8.43-2.47,2.51-5.09-3.61-14.42-9.4-14.71ZM276.96,205.32c-32.62-5.66-61.39-28.29-96-21.6,1,1.2,3.2,1.71,4.68,2.28,24.4,9.32,49.25,19.43,75.72,20.28l15.59-.95Z"/>
    <path class="cls-1" d="M660.48,322.43c-15.19-13.25-27.38-7.54-33.95,9.96-4.71,12.55-8.27,30.84.84,42.12.1.33-.46.35-.71.23-1.84-.83-5.11-8.08-5.66-10.18-3.38-12.96,4.07-44.62,18.24-49.71,6.97-2.5,18.23.25,21.25,7.57Z"/>
    <path class="cls-1" d="M130.56,317.15c-10.06-2.58-21.55-.6-24.61,10.67-3.2,11.77,3.33,34.84,11.41,44.06,2.85,3.25,6.03,4.87,9.37,7.19-10.29-2.33-15.68-12.39-18.86-21.7-3.54-10.37-7.73-29.01,1.08-37.59,4.81-4.69,16.21-7.36,21.61-2.63Z"/>
    <path class="cls-1" d="M424.42,526.67c0,25.1-20.35,45.45-45.45,45.45s-45.45-20.35-45.45-45.45,20.35-45.45,45.45-45.45,45.45,20.35,45.45,45.45ZM422.46,526.67c0-24.02-19.48-43.5-43.5-43.5s-43.5,19.48-43.5,43.5,19.48,43.5,43.5,43.5,43.5-19.48,43.5-43.5Z"/>
    <path class="cls-1" d="M391.05,548.18c2.67,3.13.33,8.52,5.65,10.43,1.39.5,3.95-.06,3.62,1.42-2.32,1.19-7.72-1.4-8.89-1.28-.36.04-1.63,1.55-2.62,2-6.15,2.8-12.22-3.75-10.93-9.98.46-2.23,2.84-4.06,3.27-6.32.03-1.07-1.48-7.18-2.04-8.09-.84-1.38-4.19-2.75-5.53-3.83-1.06-1.6-.93-15.76-1.09-18.83-.37-7.12-1.21-14.44-1.46-21.59-.07-1.95-.43-4.94.74-6.5l11.15,55.08c.21,5.06,5.75,4.66,8.13,7.46ZM377.76,530.75v-1.19s-.47-.5-.47-.5l-1.45-.23v1.92s1.92,0,1.92,0ZM383.88,547.63c-4.9,1.95-4.94,7.87-.71,10.6l4.22.15,1.41-.99c1.77-1.81,1.74-4.11,1.23-6.5l-.74-1.18-5.41-2.08Z"/>
    <path class="cls-1" d="M372.58,533.05c.16.28,3.64,1.54,2.78,2.49-3.71.31-5.6,2.98-7.07,6.06,1.16,2.6.89,7.82,2.25,9.92.44.68,2.21.7,1.24,2.28-1.52,1.81-3.94.38-5.23.59-.51.08-1.08.86-1.75,1.07-8.56,2.71-13.78-8.98-5.7-13.38,2.19-1.19,5-1.28,6.91-2.69,2.28-1.69,4.26-6,6.24-8.16l.34,1.82ZM361.79,543.33c-1.75.4-4.08,3.12-4.1,4.93.32,1.93.73,4.07,2.77,4.83,4.6,1.46,8.9-3.36,6.68-7.64l-3.09-2.2c-.76-.1-1.51-.09-2.26.08Z"/>
    <path class="cls-1" d="M380.65,527.39l-1.22-11.06,14.17-26.86c-.14,2.18-.79,4.41-1.42,6.5-2.54,8.49-6.69,21.77-10.21,29.63-.3.67-.48,1.59-1.32,1.79Z"/>
  </g>

  <!-- Animated fill overlay (progress wipe layer) -->
  <g class="fill-layer" clip-path="url(#logo-clip)">
    <path class="cls-1" d="M706.66,297.37l27.02,11.14c.76.68-.46.51-.85.38-6.49-2.08-12.85-4.88-19.3-7.11-88.55-30.64-181.63-49.28-275.52-53.28-17.79-.76-35.43-.79-53.31-.98-24.88-.26-49.88-.93-74.85.51-97.21,5.61-196.49,28.87-288.01,60.95-6.66,2.34-13.28,5.25-20,7.36-.46.15-1.56.65-1.84.09,16.03-8.04,32.59-15.09,49.38-21.42,9.95-100.57,68.77-192.51,154.18-245.42,114.34-70.83,260.17-65.38,368.75,13.73,75.4,54.94,125.07,140.74,134.35,234.05ZM699.84,294.59c-2.66-28.95-10.11-58.01-20.89-84.94C624.12,72.63,483.07-10.19,335.83,8.58,199.68,25.94,87.66,129.95,60.15,264.26c-1.73,8.45-3.85,18.69-4.48,27.21-.09,1.19.65.74,1.48.52,1.47-.39,12.34-4.48,12.69-5.07,12.03-92.59,67.4-176.05,146.97-224.07C323.18-1.35,458.35,4.41,558.67,77.44c68.37,49.77,114.41,126.3,125.29,210.59l15.88,6.55ZM363.36,237.95v-108.48c-20.75,13.25-49.92,11.51-61.92-12.24,0-.53,1.43-.24,1.92,0,1.46.73,4.93,4.32,6.86,5.62,12.72,8.58,27.51,10.19,41.88,4.7,3.96-1.51,7.92-3.91,11.27-6.49v-17.04l-10.55,6.97c-18.36,12.71-64.28,7.81-55.08-22.92,2.66-8.87,16.76-11.02,19.78-2.28,1.69,4.89-.35,8.28.28,12.2.94,5.86,12.16,3.41,16.18,2.31,21.32-5.84,37.81-29.75,44.99-49.57h28.56v188.64l12,.48V56.03l5.77,3.11.92,181c27.11,2.01,54.33,3.52,81.39,6.45,59.46,6.45,118.56,18.32,174,40.8-14.33-117.37-98.9-216.64-210.83-252.61C295.4-21.58,108.59,89.59,74.63,269.62c-.25,1.33-3.23,16.83-2.38,16.82,48.95-17.17,99.53-30.12,150.86-38.26,30.68-4.86,61.42-7.85,92.49-9.27.95-.04,1.88-.54,2.87-.49l44.9-.46Z"/>
    <path class="cls-1" d="M333.12,406.91l17.76-17.76-53.03,2.4c-91.71,7.99-181.54,30.29-267.6,61.91l14.55-7.28c104.06-45.7,217.4-67.53,331.26-64.7,93.42,2.32,189.59,9.6,277.34,43.3l49.32,20.51c-85.58-30.93-175.65-50.22-266.88-54.71l5.77,8.39c-1.1,1.69-1.77,3.68-2.78,5.4-.23.4.14.8-.82.61l-11.04-14.88h-6.96l16.32,16.8h-103.2Z"/>
    <path class="cls-1" d="M682.6,441.01l4.91,1.04.81,1.07c-24.8,68.79-73.1,128.21-134.91,167.03-87.26,54.8-195.15,65.64-291.92,29.44-89.09-33.33-161.52-105.91-193.83-195.47l4.1-3.15.96.02c2.18,5.23,4.03,10.61,6.26,15.82,59.61,139.41,206.32,219.71,356.88,192.75,112.32-20.11,208.58-101.11,246.74-208.55Z"/>
    <path class="cls-1" d="M396,272.51l-6.73,7.88,10.09,25.72c1.27.06,3.12-.5,2.8-2.04l-9.37-23.17,7.06-7.21,1.9.27-6.5,6.73,8.42,23.02,6.23-3.36,4.81,12h-8.4c-.27,0-3.5,1.35-3.53,1.67l11.08,29.67,9.02,7.54-31.2-.48,8.2-7.03-6.77-17.93c-.33-.26-5.48,5.16-6,5.75-1.32,1.49-3.6,5.34-4.76,6.28-.44.35-1.36.86-1.71.21l11.3-13.21-.26-2.86c-1.27-1.15-12.74,11.13-12.96,13.44l-10.79-13.43c-3.27,5.08-6.21,12.71-5.47,18.9.65,5.41,6.51,10.58,10.02,14.45-.46.7-.92.66-1.65.74-5.78.64-14.47.32-20.64.48-3.92.1-7.85-.2-11.76.24l-.98-1.21,31.68-.97c-1.74-3.02-4.68-5.14-6.33-8.31-4.23-8.15.03-17.78,3.32-25.53l-3.22-2.63c-1.85,7.88-8.45,18.53-3.48,26.28,1.54,2.4,4.3,3.98,5.88,6.36l-28.96.95-2.72,5.06c-9.74,1.28-19.69,1.32-29.52,2.16-11.45.98-24.37,3.45-35.55,3.86-.95.03-1.73-.29-2.61-.51-.07-.74,1.21-.81,1.73-.9,8.23-1.44,18.38-2.15,26.83-2.93,12.69-1.17,25.45-1.82,38.18-2.62l1.35-4.23c-4.57-5.55-9.46-11.24-11.93-18.11.61.37,1.5.3,1.95.81,1.31,1.5,3.16,5.77,4.57,7.79.81,1.16,6.15,8.54,6.74,8.65,12.9-7.45,17.94-21.84,22.26-35.3.13-3.03-7-3.09-9.01-3.91-.53-.21-.75.04-.54-.78l5-9.41c.71-.17,5.35,4.31,6.61,4.92,1.57.77,2.53-1.04,2.05-2.03-.72-1.49-6.78-4.2-6.5-5.52l1.47-.53,6.22,3.9,8.56-21.74c.26-1.78-4.63-5.11-5.92-6.37-.47-.46-.9-.63-.73-1.43h31.2ZM376.32,285.47l-10.48,25.13,12.61,13.73c1.26-1.06,2.1-1.5,1.36-3.21-1.15-2.64-9.94-10.03-10.04-10.92l7.91-21.49-1.36-3.24ZM379.68,292.67l-1.06.61-6.53,16.36,9.73,10.85,6.42-6.37-8.55-21.45Z"/>
    <path class="cls-1" d="M217.93,325.32c8.1,13.9,19.44,26.26,33.12,34.79-6.55,3.61-13.19,7.34-18.48,12.71-5.17-13.81-10.81-27.5-19.01-39.79l-12.43,5.26,4.41,22.21,12.87,9.44-32.15,6.02-.97-1.21,29.28-5.29-10.3-8.18-4.56-23.31.45-.91,12.48-5.28-2.14-3.06-15.13,5.23,5.17,26.27,7.79,6.36-26.88,5.28,6-8.19-3.6-20.14-8.15,2.88c-.21-.99.49-1.11,1.1-1.53,1.17-.79,5.94-2.56,6.37-3.26l-.28-2.89-10.08,3.36,1-7.16,7.36-1.43-5.46-29.5-7.22-2c14.74-11.26,40.05-20.01,57.92-12.33,21.11,9.08,7.96,30.91-8.49,35.61ZM199.21,327.71c11.31-3.54,28.87-11.96,22.65-26.73-4.84-11.49-24.5-10.4-33.14-4.15l5.98,31.87,2.8-.46-4.79-29.82c7.92-3.72,19.41-5.62,26.19,1.2l-11.26-3.14c-2.36-.3-11.84,1.03-12.98,2.89s4.65,24.37,4.57,28.33Z"/>
    <path class="cls-1" d="M516.97,359.39l9.13-5.13,9.11-63.74-6.24-8.4c21.45,4.13,54.86,2.86,61.78,29.17,3.37,12.81-.94,31.88-9.48,42.09-16.38,19.59-43.02,7.61-64.31,6.01ZM542.88,358.91c9.12,1.36,16.59.56,23.06-6.47,9.42-10.24,14.95-36.05,8.86-48.72-4.46-9.28-16.15-12.41-25.65-12.94l-10.58,67.17,2.88.49,10.03-63.56c6.68-.47,14.77.95,19.25,6.44-1.75-.58-3.25-1.75-4.96-2.48-4.12-1.75-8.79-3.37-13.24-2.27l-9.65,62.36Z"/>
    <path class="cls-1" d="M475.2,276.36l-9.59,5.03,26.88,59.28c1.04.78,1.24-6,1.23-6.71l-23.28-51.08c.13-.57,8.46-4.6,9.54-4.88.86-.22.88-.21,1.46.52.16.74-.61,1.02-1.1,1.29-1.03.58-7.3,2.94-7.54,3.27l21.6,47.51c.51-10.52,2.53-20.96,3.36-31.44.32-4.05.9-8.83-.22-12.74-1.26-4.41-5.76-6.24-8.9-9.1l30.24,3.36-10.31,5.28-3.84,7.2-7.93,63.84-9.35-.97-1.43-.97-25.7-56.62-.95.71-2.42,41.79c.33,3.81,1.89,6.97,4.34,9.82-.63.57-2.47-1.79-2.79-2.24-3.22-4.45-3.15-10.95-2.96-16.23.43-12.15,2.23-24.77,2.91-36.96l-3.39-6.97-2.42,36.22c.21,11.68-2.78,24.44,11.32,28.56l4.54,6.25-34.07-2.65-.97-1.18,31.68,1.91-2.61-3.39-29.07-2.37,6.2-3.15c3.53-1.84,5-5.76,5.96-9.4,2.49-18.95,2.64-38.2,4.15-57.27l-8.15-7.93,33.6,2.4Z"/>
    <path class="cls-1" d="M634.46,304.32c39.09-4.41,53.62,34.43,34.1,64.34-19.2,29.41-63.31,14.45-65.18-19.11-1.07-19.12,10.12-42.85,31.09-45.22ZM642.64,309.59c-19.48.63-27.47,33.72-26.34,49.11,1.4,19.09,22.23,27.11,34.82,11.75,7.66-9.35,15.37-35.92,11.9-47.43-2.61-8.67-11.59-13.71-20.39-13.42Z"/>
    <path class="cls-1" d="M120.39,305.78c42.44-3.86,57.57,70.86,11.16,79.32s-67.18-74.23-11.16-79.32ZM117.5,311.53c-27.1,3.23-18.58,40.55-9.26,56.52,11.1,19.01,35.98,15.57,37.71-6.47,1.3-16.56-5.92-52.72-28.44-50.04Z"/>
    <path class="cls-1" d="M278.88,539.39l-5.51-9.61c-6.67-8.41-21.67-2.95-18.17,8.57l29.67,40.89c7.96,8.28,14.25,7.54,23.63,2,14.94-8.83,17.49-31.96-3.44-33.68l-.55.99c1.98,5.94,1.51,15.04-5.92,16.55-13.43,2.73-8.58-11.81-1.95-16.35-2.47-1.51-7.54-.36-9.77,1.27-4.25,3.13-2.67,9.23-1.65,13.51.15.61.93.91-.34.82-12.7-12.08,4.09-28.27,16.87-18.33,18.65-5.7,26.86,14.63,18.31,29.52-11.86,20.67-33.1,15.72-49.09,3.19-17.75-13.91-30.11-34.2-42.36-52.79-21.62-1.16-21.51,26.27-7.34,36-11.83-3.9-19.82-12.69-15.93-25.77,1.98-6.65,9.9-15.09,17.37-14.55.7-.59-3.5-4.77-4.06-5.29-6.66-6.17-15.08-10.02-24.1-6.8-7.2,2.57-9.53,9.32-7.59,16.41s7.56,6.12,13.68,5.28c-11.37,12.61-26.64-4.84-17.49-17.25,1.47-1.99,8.01-7.43,10.29-8.43,14.68-6.36,29.22,1.33,35.59,15.04,10.55,0,17.41,8.09,24.17,14.95-.41-4.84,1.37-10.06,5.99-12.24,5.66-2.67,14.09-2.26,17.54,3.59.52.88,2.14,4.79,2.14,5.54v6.96ZM282.72,583.55l-9.03-11.37c-11-16.03-20.03-35.76-38.97-43.83,13.42,20.77,25.89,42.44,48,55.2ZM299.85,549.52c-3.83,2.47-7.57,6.05-6.46,11.13l2.16,2.16c7.02,2.09,9.1-10.08,4.3-13.29Z"/>
    <path class="cls-1" d="M478.56,531.95c1.66-12.36,19.4-13.69,24.38-3.26l1.53,6.86c.03-.54.35-1.06.71-1.45,5.95-6.55,13.3-13.51,22.77-13.48,5.57-13.83,20.81-21.36,35.09-15.07,4.69,2.07,11.77,9.46,12.74,14.62,2.17,11.52-11.71,21.46-19.94,11.07,6.92,1.17,12.89,1.29,13.87-7.02,1.98-16.8-15.49-19.25-26.98-11.62-1.81,1.2-6.95,5.65-8.03,7.33-.38.59-.59.95-.46,1.7,7.79-.13,14.92,7.89,17.02,14.9,3.8,12.74-4.18,21.32-15.58,25.41,4.35-4.45,8.06-8.21,9.07-14.68,1.9-12.09-3.09-21.92-16.43-21.23-11.53,17.05-22.47,35.55-37.99,49.37-16.91,15.06-43.77,23.5-54.24-3.38-5.6-14.39,3.14-31.63,19.69-25.92,12.61-10.14,29.3,6.15,16.78,18.24-1.27.09-.48-.2-.34-.82,2.49-10.38.64-16.58-11.42-15.01,3.55,2.64,8.25,10.2,6.13,14.53l-2.26,2.05c-11.86,2.26-14.4-8.22-11.55-17.54-19.58.61-19.36,22.14-6.4,32.08,8.98,6.88,17.21,8.49,25.59-.16l29.42-41.14c2.02-4.55-.46-9.78-4.94-11.66-7.62-3.2-12.24,1.41-15.93,7.59l-2.31,4.65c.21-2.2-.29-4.83,0-6.96ZM522.24,528.36c-1.23-.95-10.99,6.6-12.49,7.91-14.82,13.01-21.28,32.82-35.03,46.8.7.59,10.08-6.7,11.27-7.69,15.79-13.09,25.02-30.25,36.25-47.02ZM457.01,549.5c-3.71,4.28-1.83,15.54,5.26,13.19,5.71-1.88-.73-12.86-5.26-13.19Z"/>
    <path class="cls-1" d="M284.7,350.7c.85-.09,3.52.7,3.32-.67l-6.27-62.91,6.5-7.88.48,1.91-5.26,5.78,5.92,63.06c13.62,1.56,25.48-4.85,26.69-19.4,3.81,7.54,7.44,15.49,13.68,21.36l-65.76,5.99,6.95-7.68-6.58-61.56c-.18-.72-.32-1.46-.86-2.02-1.5-1.53-7.8-4.07-8.87-5.53l.55-.9,30.89-3.42-8.18,10.3,6.8,63.57Z"/>
    <path class="cls-1" d="M667.2,434.27c.54.56-3.03,9.11-3.61,10.54-50.65,125.23-179.27,203.44-314.38,191.53-118.39-10.44-221.35-89.53-262.79-200.4l1.19-.73.95.5c11.67,31.1,28.33,60.36,49.22,86.14,87.18,107.58,236.81,143.81,364.15,87.22,75.13-33.39,134.9-96.82,163.41-174.03l1.86-.77Z"/>
    <path class="cls-1" d="M646.08,473.16c.11.84-1.09.45-1.67.48-3.2.13-6.43-.12-9.62-.02-58.24,1.85-116.39,2.25-174.72,2.88-6.88.07-14.18,1.16-21.12.52-3.03-.28-2.63-1.31-4.58-2.62-3.49-2.35-7.21-4.02-11-5.8,27.42-.22,54.91-.52,82.35-.26,26.66.25,53.49,1.29,80.16,1.44l60.22,3.38Z"/>
    <path class="cls-1" d="M331.68,468.84l-5.72,3.15-5.81,4.75c-16.64.32-33.47.43-50.17.27-46.67-.45-93.55-1.8-140.12-3.88-5.64-.25-11.72-.04-17.33-.43-.82-.06-1.59.05-2.13-.75l221.28-3.11Z"/>
    <polygon class="cls-1" points="489.6 419.39 495.75 419.49 508.32 440.03 508.32 420.11 514.56 419.39 514.56 451.07 507.6 450.6 495.36 431.39 495.36 451.07 489.6 451.07 489.6 419.39"/>
    <path class="cls-1" d="M435.74,419.05c8.7-.95,16.28,4.17,17.34,13.12,1.5,12.79-6,21.44-19.17,19.17-15.5-2.67-15.83-30.37,1.84-32.29ZM435.72,424.79c-5.83,1-7.14,8.08-6.54,13.03,1.32,11.01,16.06,11.33,17.22.05.79-7.66-1.66-14.62-10.68-13.08Z"/>
    <path class="cls-1" d="M265.92,428.99h-6.72c.57-5.69-10.72-5.47-11.06-1.65l.47,1.45c2.72,4.07,14.47,1.58,17.54,9.82,5.74,15.41-24.45,18.41-25.22,2.68l6.27-1.26c.82,6.19,8.04,8.27,12.43,4.03,2.92-6.24-6.16-6.02-10.16-7.5-5.2-1.92-9.14-5.91-6.68-11.75,3.94-9.38,23.4-7.5,23.13,4.18Z"/>
    <path class="cls-1" d="M331.68,451.07h-7.2l-2.45-7.14-12.61-.09-2.67,7.01-6.74.22,12.69-31.71,5.31.03,1.15.77,12.53,30.91ZM319.68,438.59l-3.85-11.04c-2.21,3.06-3.28,7.41-4.31,11.04h8.16Z"/>
    <path class="cls-1" d="M430.65,526.54c0,28.62-23.2,51.82-51.82,51.82s-51.82-23.2-51.82-51.82,23.2-51.82,51.82-51.82,51.82,23.2,51.82,51.82ZM429.7,526.55c0-28.09-22.77-50.86-50.86-50.86s-50.86,22.77-50.86,50.86,22.77,50.86,50.86,50.86,50.86-22.77,50.86-50.86Z"/>
    <polygon class="cls-1" points="372.48 419.87 372.48 445.79 388.32 445.79 388.32 451.07 366.24 451.07 366.24 419.87 372.48 419.87"/>
    <path class="cls-1" d="M227.08,326.79c-.87,1.2,5.37,9.53,6.5,10.95,7.81,9.85,17.63,17.49,28.99,22.85-9.36,3.51-17.94,8.85-25.73,15.08l-1.14-.68c0-.9,10.55-8.02,12.15-8.96,3.09-1.82,7.62-3.35,10.26-5.08.46-.3.87.06.62-1.07-14.54-6.49-25.76-19.19-34-32.52v-1.02c13.65-6.32,23.72-21.28,11.45-34.39.79-.67,2.18,1.15,2.64,1.68,10.81,12.43.9,27.48-11.73,33.16Z"/>
    <path class="cls-1" d="M519.45,365.07l-.56-1.35c10.05.66,19.97,3.35,30,4.31,19.71,1.89,34.79-3.39,42.89-22.39,5.44-12.75,8.29-31.74-1.37-43.14l.23-.71c13.77,13.41,6.5,42.82-4.57,55.9-16.82,19.88-44.63,9.42-66.62,7.37Z"/>
    <path class="cls-1" d="M415.55,302.88c.64.81,2.2,6.23,2.94,7.87,1.13,2.53,2.54,4.96,3.92,7.35-.69.5-9.38-1.55-11.28-1.48-.77.03-2.21-.04-2.09,1.16l9.99,26.87,13.46,12.34c-1.23.07-2.36-.44-3.58-.49-9.43-.41-19.55.17-28.84-.44-1.48-.1-3.79-.34-5.02-1.22l33.12.24-10.76-10.11-10.82-28.53c3.82-2.48,8.73-.44,12.95-.24l-5.76-14.4c.06-.08,1.66.95,1.78,1.09Z"/>
    <path class="cls-1" d="M120.01,388.67c-.12-.82,1.14-.51,1.67-.47,5.28.41,8.42.47,13.69-.72,30.17-6.81,36.41-41.19,22.16-65.36-5.74-9.74-10.87-12.41-20.86-16.58-.59-.25-1.51-.89-.11-.86,25.77,5.53,35.65,40.97,25.91,62.86-7.26,16.31-25.14,24.63-42.46,21.13Z"/>
    <path class="cls-1" d="M619.21,381.48c2.17.81,4.09,2.24,6.25,3.11,26.23,10.59,49.09-5.44,54.87-31.52,2.98-13.46,1.42-28.48-9.27-38.08l.23-.71c21.76,17.74,11.2,57.43-10.96,70.16-12.57,7.22-30.02,6.57-41.12-2.96Z"/>
    <path class="cls-1" d="M520.8,285.96c-.83,2.02-3.25,1.54-4.8,2.16-3.56,1.42-4.77,2.98-5.83,6.65l-8.57,67.99c-3.71-1.11-9.13-.48-12.61-1.54-.52-.16-1.16-.78-1.3-1.33l12.26,1.31.63-.67c2.43-18.3,3.83-36.79,6.37-55.07,1.28-9.21,1.41-20.25,13.86-19.49Z"/>
    <circle class="cls-1" cx="194.04" cy="444.7" r="3.54"/>
    <circle class="cls-1" cx="568.69" cy="444.7" r="3.54"/>
    <path class="cls-1" d="M492.96,183.23c1.71-2.07,4.19-3.3,6-5.27,8.19-8.9,3.88-17.19-6-21.6,3.43,5.24.33,21.61-6.96,21.64-3.99.01-8.74-4.58-10.22-8.07-3.64-8.62,3.92-15.36,9.49-20.76-20.33-13.86-37.96,5.43-33.95,26.5,1.21,6.37,7.76,19.94,13.94,22.54,5.4,2.28,14.01,1.58,19.63.25,20.44-4.83,41.36-13.94,61.82-19.3,7.06-3.86,8.68-11.06,4.43-17.87-5.12-8.2-13.09-7.95-21.35-4.81-2.99,1.14-5.6,2.95-8.52,4.19,5.87-11.06,17.26-17.3,28.33-8.4,6.41,5.16,9.92,12.04,6.17,20.11-.91,1.96-2.57,3.18-3.3,5.1,12.53-2.9,27.63-5.31,38.63,2.89,10.92-5.99,27.24-7.83,38.31-1.35s16.91,16.02,18.09,28.95c2.06,22.49-30.16,30.27-33.59,6.48,5.76,5.29,11.99,11.76,19.68,5.53,8.81-7.13,11.35-16.57,3.82-25.92-9.63-11.96-26.12-11.4-39.83-8.41,3.53,3.56,6.26,6.82,7.65,11.78,5.79,20.6-8.01,39.08-29.91,36.15l-9.42-2.33c23.16,1.68,46.89-28.67,21.73-44.56-8.14,2.29-15.9,5.83-23.89,8.57-29.23,10.04-83.79,26.59-108.97,1.91-12.47-12.23-13.03-35.1-1.7-48.25,9.71-11.26,29.02-12.96,36.81,1.14,22.45-1.29,27.62,31.34,3.04,33.19ZM489.08,154.96c-7.27-.36-15.38,14.4-6.95,17.75,9.26,3.68,10.49-12.38,6.95-17.75ZM578.88,183.72c-32.79-6.39-60.88,13.18-91.29,20.31-1.88.44-3.81.62-5.68,1.05-.53.12-1.55,0-1.43.72,7.93.4,15.82.63,23.75,0,23.28-1.86,49.63-11.75,71.4-20.28,1.04-.41,2.7-.77,3.24-1.79Z"/>
    <path class="cls-1" d="M193.92,231.24l-9.42,2.33c-26.77,4.53-40.33-29.16-22.29-46.77.4-.39.69-.42.51-1.16-9.03-1.86-18.11-3.07-27,.11-12.88,4.62-21.56,18.99-11.41,30.85,8.64,10.1,14.6,5.82,22.57-2.17-3.33,24.02-34.86,16.04-32.58-6.91,1.21-12.23,5.93-20.68,16.12-27.56,11.14-7.52,27.49-5.96,38.8.4,10.7-8.1,25.46-5.87,37.67-2.89-.92-2.13-2.52-3.68-3.44-5.91-3.27-7.97.11-14.21,6.32-19.29,10.67-8.73,22.23-2.87,27.36,8.41-8.26-4.97-19.87-10.41-27.55-1.4-6.21,7.28-4.42,17.26,4.74,20.62,19.51,4.87,39.29,14,58.72,18.56,6.09,1.43,15.05,2.26,20.6-1.21,4.96-3.1,10.86-15.92,11.93-21.67,3.3-17.73-9.7-38.63-29.4-28.44-.98.51-4.51,2.01-3,3.19,9.05,6.58,14.27,18.08,3.29,25.91s-15.43-12.93-11.48-19.87c-3.86,1.46-8.75,5.57-9.75,9.68-1.98,8.1,4.84,12.29,9.75,17.19-23.98-2.04-19-34.73,3.28-33.19,5.53-12.27,22.05-12.52,31.72-4.92,13.71,10.78,15.32,35.03,5.04,48.64-21.64,28.66-76.76,12.71-105.09,2.93-9.13-3.15-18.06-7.21-27.25-10.01-9.35,6.45-13.83,15.99-8.27,26.81s16.88,18.29,29.53,17.76ZM269.11,154.95c-2.74,4.16-3.45,13.87.97,17.17,3.01,2.25,6.86.71,8.43-2.47,2.51-5.09-3.61-14.42-9.4-14.71ZM276.96,205.32c-32.62-5.66-61.39-28.29-96-21.6,1,1.2,3.2,1.71,4.68,2.28,24.4,9.32,49.25,19.43,75.72,20.28l15.59-.95Z"/>
    <path class="cls-1" d="M660.48,322.43c-15.19-13.25-27.38-7.54-33.95,9.96-4.71,12.55-8.27,30.84.84,42.12.1.33-.46.35-.71.23-1.84-.83-5.11-8.08-5.66-10.18-3.38-12.96,4.07-44.62,18.24-49.71,6.97-2.5,18.23.25,21.25,7.57Z"/>
    <path class="cls-1" d="M130.56,317.15c-10.06-2.58-21.55-.6-24.61,10.67-3.2,11.77,3.33,34.84,11.41,44.06,2.85,3.25,6.03,4.87,9.37,7.19-10.29-2.33-15.68-12.39-18.86-21.7-3.54-10.37-7.73-29.01,1.08-37.59,4.81-4.69,16.21-7.36,21.61-2.63Z"/>
    <path class="cls-1" d="M424.42,526.67c0,25.1-20.35,45.45-45.45,45.45s-45.45-20.35-45.45-45.45,20.35-45.45,45.45-45.45,45.45,20.35,45.45,45.45ZM422.46,526.67c0-24.02-19.48-43.5-43.5-43.5s-43.5,19.48-43.5,43.5,19.48,43.5,43.5,43.5,43.5-19.48,43.5-43.5Z"/>
    <path class="cls-1" d="M391.05,548.18c2.67,3.13.33,8.52,5.65,10.43,1.39.5,3.95-.06,3.62,1.42-2.32,1.19-7.72-1.4-8.89-1.28-.36.04-1.63,1.55-2.62,2-6.15,2.8-12.22-3.75-10.93-9.98.46-2.23,2.84-4.06,3.27-6.32.03-1.07-1.48-7.18-2.04-8.09-.84-1.38-4.19-2.75-5.53-3.83-1.06-1.6-.93-15.76-1.09-18.83-.37-7.12-1.21-14.44-1.46-21.59-.07-1.95-.43-4.94.74-6.5l11.15,55.08c.21,5.06,5.75,4.66,8.13,7.46ZM377.76,530.75v-1.19s-.47-.5-.47-.5l-1.45-.23v1.92s1.92,0,1.92,0ZM383.88,547.63c-4.9,1.95-4.94,7.87-.71,10.6l4.22.15,1.41-.99c1.77-1.81,1.74-4.11,1.23-6.5l-.74-1.18-5.41-2.08Z"/>
    <path class="cls-1" d="M372.58,533.05c.16.28,3.64,1.54,2.78,2.49-3.71.31-5.6,2.98-7.07,6.06,1.16,2.6.89,7.82,2.25,9.92.44.68,2.21.7,1.24,2.28-1.52,1.81-3.94.38-5.23.59-.51.08-1.08.86-1.75,1.07-8.56,2.71-13.78-8.98-5.7-13.38,2.19-1.19,5-1.28,6.91-2.69,2.28-1.69,4.26-6,6.24-8.16l.34,1.82ZM361.79,543.33c-1.75.4-4.08,3.12-4.1,4.93.32,1.93.73,4.07,2.77,4.83,4.6,1.46,8.9-3.36,6.68-7.64l-3.09-2.2c-.76-.1-1.51-.09-2.26.08Z"/>
    <path class="cls-1" d="M380.65,527.39l-1.22-11.06,14.17-26.86c-.14,2.18-.79,4.41-1.42,6.5-2.54,8.49-6.69,21.77-10.21,29.63-.3.67-.48,1.59-1.32,1.79Z"/>
  </g>

  <!-- Clip path so fill only appears inside logo -->
  <defs>
    <clipPath id="logo-clip">
      <g>
        <path class="cls-1" d="M706.66,297.37l27.02,11.14c.76.68-.46.51-.85.38-6.49-2.08-12.85-4.88-19.3-7.11-88.55-30.64-181.63-49.28-275.52-53.28-17.79-.76-35.43-.79-53.31-.98-24.88-.26-49.88-.93-74.85.51-97.21,5.61-196.49,28.87-288.01,60.95-6.66,2.34-13.28,5.25-20,7.36-.46.15-1.56.65-1.84.09,16.03-8.04,32.59-15.09,49.38-21.42,9.95-100.57,68.77-192.51,154.18-245.42,114.34-70.83,260.17-65.38,368.75,13.73,75.4,54.94,125.07,140.74,134.35,234.05ZM699.84,294.59c-2.66-28.95-10.11-58.01-20.89-84.94C624.12,72.63,483.07-10.19,335.83,8.58,199.68,25.94,87.66,129.95,60.15,264.26c-1.73,8.45-3.85,18.69-4.48,27.21-.09,1.19.65.74,1.48.52,1.47-.39,12.34-4.48,12.69-5.07,12.03-92.59,67.4-176.05,146.97-224.07C323.18-1.35,458.35,4.41,558.67,77.44c68.37,49.77,114.41,126.3,125.29,210.59l15.88,6.55ZM363.36,237.95v-108.48c-20.75,13.25-49.92,11.51-61.92-12.24,0-.53,1.43-.24,1.92,0,1.46.73,4.93,4.32,6.86,5.62,12.72,8.58,27.51,10.19,41.88,4.7,3.96-1.51,7.92-3.91,11.27-6.49v-17.04l-10.55,6.97c-18.36,12.71-64.28,7.81-55.08-22.92,2.66-8.87,16.76-11.02,19.78-2.28,1.69,4.89-.35,8.28.28,12.2.94,5.86,12.16,3.41,16.18,2.31,21.32-5.84,37.81-29.75,44.99-49.57h28.56v188.64l12,.48V56.03l5.77,3.11.92,181c27.11,2.01,54.33,3.52,81.39,6.45,59.46,6.45,118.56,18.32,174,40.8-14.33-117.37-98.9-216.64-210.83-252.61C295.4-21.58,108.59,89.59,74.63,269.62c-.25,1.33-3.23,16.83-2.38,16.82,48.95-17.17,99.53-30.12,150.86-38.26,30.68-4.86,61.42-7.85,92.49-9.27.95-.04,1.88-.54,2.87-.49l44.9-.46Z"/>
        <path class="cls-1" d="M333.12,406.91l17.76-17.76-53.03,2.4c-91.71,7.99-181.54,30.29-267.6,61.91l14.55-7.28c104.06-45.7,217.4-67.53,331.26-64.7,93.42,2.32,189.59,9.6,277.34,43.3l49.32,20.51c-85.58-30.93-175.65-50.22-266.88-54.71l5.77,8.39c-1.1,1.69-1.77,3.68-2.78,5.4-.23.4.14.8-.82.61l-11.04-14.88h-6.96l16.32,16.8h-103.2Z"/>
        <path class="cls-1" d="M682.6,441.01l4.91,1.04.81,1.07c-24.8,68.79-73.1,128.21-134.91,167.03-87.26,54.8-195.15,65.64-291.92,29.44-89.09-33.33-161.52-105.91-193.83-195.47l4.1-3.15.96.02c2.18,5.23,4.03,10.61,6.26,15.82,59.61,139.41,206.32,219.71,356.88,192.75,112.32-20.11,208.58-101.11,246.74-208.55Z"/>
        <path class="cls-1" d="M396,272.51l-6.73,7.88,10.09,25.72c1.27.06,3.12-.5,2.8-2.04l-9.37-23.17,7.06-7.21,1.9.27-6.5,6.73,8.42,23.02,6.23-3.36,4.81,12h-8.4c-.27,0-3.5,1.35-3.53,1.67l11.08,29.67,9.02,7.54-31.2-.48,8.2-7.03-6.77-17.93c-.33-.26-5.48,5.16-6,5.75-1.32,1.49-3.6,5.34-4.76,6.28-.44.35-1.36.86-1.71.21l11.3-13.21-.26-2.86c-1.27-1.15-12.74,11.13-12.96,13.44l-10.79-13.43c-3.27,5.08-6.21,12.71-5.47,18.9.65,5.41,6.51,10.58,10.02,14.45-.46.7-.92.66-1.65.74-5.78.64-14.47.32-20.64.48-3.92.1-7.85-.2-11.76.24l-.98-1.21,31.68-.97c-1.74-3.02-4.68-5.14-6.33-8.31-4.23-8.15.03-17.78,3.32-25.53l-3.22-2.63c-1.85,7.88-8.45,18.53-3.48,26.28,1.54,2.4,4.3,3.98,5.88,6.36l-28.96.95-2.72,5.06c-9.74,1.28-19.69,1.32-29.52,2.16-11.45.98-24.37,3.45-35.55,3.86-.95.03-1.73-.29-2.61-.51-.07-.74,1.21-.81,1.73-.9,8.23-1.44,18.38-2.15,26.83-2.93,12.69-1.17,25.45-1.82,38.18-2.62l1.35-4.23c-4.57-5.55-9.46-11.24-11.93-18.11.61.37,1.5.3,1.95.81,1.31,1.5,3.16,5.77,4.57,7.79.81,1.16,6.15,8.54,6.74,8.65,12.9-7.45,17.94-21.84,22.26-35.3.13-3.03-7-3.09-9.01-3.91-.53-.21-.75.04-.54-.78l5-9.41c.71-.17,5.35,4.31,6.61,4.92,1.57.77,2.53-1.04,2.05-2.03-.72-1.49-6.78-4.2-6.5-5.52l1.47-.53,6.22,3.9,8.56-21.74c.26-1.78-4.63-5.11-5.92-6.37-.47-.46-.9-.63-.73-1.43h31.2ZM376.32,285.47l-10.48,25.13,12.61,13.73c1.26-1.06,2.1-1.5,1.36-3.21-1.15-2.64-9.94-10.03-10.04-10.92l7.91-21.49-1.36-3.24ZM379.68,292.67l-1.06.61-6.53,16.36,9.73,10.85,6.42-6.37-8.55-21.45Z"/>
        <path class="cls-1" d="M217.93,325.32c8.1,13.9,19.44,26.26,33.12,34.79-6.55,3.61-13.19,7.34-18.48,12.71-5.17-13.81-10.81-27.5-19.01-39.79l-12.43,5.26,4.41,22.21,12.87,9.44-32.15,6.02-.97-1.21,29.28-5.29-10.3-8.18-4.56-23.31.45-.91,12.48-5.28-2.14-3.06-15.13,5.23,5.17,26.27,7.79,6.36-26.88,5.28,6-8.19-3.6-20.14-8.15,2.88c-.21-.99.49-1.11,1.1-1.53,1.17-.79,5.94-2.56,6.37-3.26l-.28-2.89-10.08,3.36,1-7.16,7.36-1.43-5.46-29.5-7.22-2c14.74-11.26,40.05-20.01,57.92-12.33,21.11,9.08,7.96,30.91-8.49,35.61ZM199.21,327.71c11.31-3.54,28.87-11.96,22.65-26.73-4.84-11.49-24.5-10.4-33.14-4.15l5.98,31.87,2.8-.46-4.79-29.82c7.92-3.72,19.41-5.62,26.19,1.2l-11.26-3.14c-2.36-.3-11.84,1.03-12.98,2.89s4.65,24.37,4.57,28.33Z"/>
        <path class="cls-1" d="M516.97,359.39l9.13-5.13,9.11-63.74-6.24-8.4c21.45,4.13,54.86,2.86,61.78,29.17,3.37,12.81-.94,31.88-9.48,42.09-16.38,19.59-43.02,7.61-64.31,6.01ZM542.88,358.91c9.12,1.36,16.59.56,23.06-6.47,9.42-10.24,14.95-36.05,8.86-48.72-4.46-9.28-16.15-12.41-25.65-12.94l-10.58,67.17,2.88.49,10.03-63.56c6.68-.47,14.77.95,19.25,6.44-1.75-.58-3.25-1.75-4.96-2.48-4.12-1.75-8.79-3.37-13.24-2.27l-9.65,62.36Z"/>
        <path class="cls-1" d="M475.2,276.36l-9.59,5.03,26.88,59.28c1.04.78,1.24-6,1.23-6.71l-23.28-51.08c.13-.57,8.46-4.6,9.54-4.88.86-.22.88-.21,1.46.52.16.74-.61,1.02-1.1,1.29-1.03.58-7.3,2.94-7.54,3.27l21.6,47.51c.51-10.52,2.53-20.96,3.36-31.44.32-4.05.9-8.83-.22-12.74-1.26-4.41-5.76-6.24-8.9-9.1l30.24,3.36-10.31,5.28-3.84,7.2-7.93,63.84-9.35-.97-1.43-.97-25.7-56.62-.95.71-2.42,41.79c.33,3.81,1.89,6.97,4.34,9.82-.63.57-2.47-1.79-2.79-2.24-3.22-4.45-3.15-10.95-2.96-16.23.43-12.15,2.23-24.77,2.91-36.96l-3.39-6.97-2.42,36.22c.21,11.68-2.78,24.44,11.32,28.56l4.54,6.25-34.07-2.65-.97-1.18,31.68,1.91-2.61-3.39-29.07-2.37,6.2-3.15c3.53-1.84,5-5.76,5.96-9.4,2.49-18.95,2.64-38.2,4.15-57.27l-8.15-7.93,33.6,2.4Z"/>
        <path class="cls-1" d="M634.46,304.32c39.09-4.41,53.62,34.43,34.1,64.34-19.2,29.41-63.31,14.45-65.18-19.11-1.07-19.12,10.12-42.85,31.09-45.22ZM642.64,309.59c-19.48.63-27.47,33.72-26.34,49.11,1.4,19.09,22.23,27.11,34.82,11.75,7.66-9.35,15.37-35.92,11.9-47.43-2.61-8.67-11.59-13.71-20.39-13.42Z"/>
        <path class="cls-1" d="M120.39,305.78c42.44-3.86,57.57,70.86,11.16,79.32s-67.18-74.23-11.16-79.32ZM117.5,311.53c-27.1,3.23-18.58,40.55-9.26,56.52,11.1,19.01,35.98,15.57,37.71-6.47,1.3-16.56-5.92-52.72-28.44-50.04Z"/>
        <path class="cls-1" d="M278.88,539.39l-5.51-9.61c-6.67-8.41-21.67-2.95-18.17,8.57l29.67,40.89c7.96,8.28,14.25,7.54,23.63,2,14.94-8.83,17.49-31.96-3.44-33.68l-.55.99c1.98,5.94,1.51,15.04-5.92,16.55-13.43,2.73-8.58-11.81-1.95-16.35-2.47-1.51-7.54-.36-9.77,1.27-4.25,3.13-2.67,9.23-1.65,13.51.15.61.93.91-.34.82-12.7-12.08,4.09-28.27,16.87-18.33,18.65-5.7,26.86,14.63,18.31,29.52-11.86,20.67-33.1,15.72-49.09,3.19-17.75-13.91-30.11-34.2-42.36-52.79-21.62-1.16-21.51,26.27-7.34,36-11.83-3.9-19.82-12.69-15.93-25.77,1.98-6.65,9.9-15.09,17.37-14.55.7-.59-3.5-4.77-4.06-5.29-6.66-6.17-15.08-10.02-24.1-6.8-7.2,2.57-9.53,9.32-7.59,16.41s7.56,6.12,13.68,5.28c-11.37,12.61-26.64-4.84-17.49-17.25,1.47-1.99,8.01-7.43,10.29-8.43,14.68-6.36,29.22,1.33,35.59,15.04,10.55,0,17.41,8.09,24.17,14.95-.41-4.84,1.37-10.06,5.99-12.24,5.66-2.67,14.09-2.26,17.54,3.59.52.88,2.14,4.79,2.14,5.54v6.96ZM282.72,583.55l-9.03-11.37c-11-16.03-20.03-35.76-38.97-43.83,13.42,20.77,25.89,42.44,48,55.2ZM299.85,549.52c-3.83,2.47-7.57,6.05-6.46,11.13l2.16,2.16c7.02,2.09,9.1-10.08,4.3-13.29Z"/>
        <path class="cls-1" d="M478.56,531.95c1.66-12.36,19.4-13.69,24.38-3.26l1.53,6.86c.03-.54.35-1.06.71-1.45,5.95-6.55,13.3-13.51,22.77-13.48,5.57-13.83,20.81-21.36,35.09-15.07,4.69,2.07,11.77,9.46,12.74,14.62,2.17,11.52-11.71,21.46-19.94,11.07,6.92,1.17,12.89,1.29,13.87-7.02,1.98-16.8-15.49-19.25-26.98-11.62-1.81,1.2-6.95,5.65-8.03,7.33-.38.59-.59.95-.46,1.7,7.79-.13,14.92,7.89,17.02,14.9,3.8,12.74-4.18,21.32-15.58,25.41,4.35-4.45,8.06-8.21,9.07-14.68,1.9-12.09-3.09-21.92-16.43-21.23-11.53,17.05-22.47,35.55-37.99,49.37-16.91,15.06-43.77,23.5-54.24-3.38-5.6-14.39,3.14-31.63,19.69-25.92,12.61-10.14,29.3,6.15,16.78,18.24-1.27.09-.48-.2-.34-.82,2.49-10.38.64-16.58-11.42-15.01,3.55,2.64,8.25,10.2,6.13,14.53l-2.26,2.05c-11.86,2.26-14.4-8.22-11.55-17.54-19.58.61-19.36,22.14-6.4,32.08,8.98,6.88,17.21,8.49,25.59-.16l29.42-41.14c2.02-4.55-.46-9.78-4.94-11.66-7.62-3.2-12.24,1.41-15.93,7.59l-2.31,4.65c.21-2.2-.29-4.83,0-6.96ZM522.24,528.36c-1.23-.95-10.99,6.6-12.49,7.91-14.82,13.01-21.28,32.82-35.03,46.8.7.59,10.08-6.7,11.27-7.69,15.79-13.09,25.02-30.25,36.25-47.02ZM457.01,549.5c-3.71,4.28-1.83,15.54,5.26,13.19,5.71-1.88-.73-12.86-5.26-13.19Z"/>
        <path class="cls-1" d="M284.7,350.7c.85-.09,3.52.7,3.32-.67l-6.27-62.91,6.5-7.88.48,1.91-5.26,5.78,5.92,63.06c13.62,1.56,25.48-4.85,26.69-19.4,3.81,7.54,7.44,15.49,13.68,21.36l-65.76,5.99,6.95-7.68-6.58-61.56c-.18-.72-.32-1.46-.86-2.02-1.5-1.53-7.8-4.07-8.87-5.53l.55-.9,30.89-3.42-8.18,10.3,6.8,63.57Z"/>
        <path class="cls-1" d="M667.2,434.27c.54.56-3.03,9.11-3.61,10.54-50.65,125.23-179.27,203.44-314.38,191.53-118.39-10.44-221.35-89.53-262.79-200.4l1.19-.73.95.5c11.67,31.1,28.33,60.36,49.22,86.14,87.18,107.58,236.81,143.81,364.15,87.22,75.13-33.39,134.9-96.82,163.41-174.03l1.86-.77Z"/>
        <path class="cls-1" d="M646.08,473.16c.11.84-1.09.45-1.67.48-3.2.13-6.43-.12-9.62-.02-58.24,1.85-116.39,2.25-174.72,2.88-6.88.07-14.18,1.16-21.12.52-3.03-.28-2.63-1.31-4.58-2.62-3.49-2.35-7.21-4.02-11-5.8,27.42-.22,54.91-.52,82.35-.26,26.66.25,53.49,1.29,80.16,1.44l60.22,3.38Z"/>
        <path class="cls-1" d="M331.68,468.84l-5.72,3.15-5.81,4.75c-16.64.32-33.47.43-50.17.27-46.67-.45-93.55-1.8-140.12-3.88-5.64-.25-11.72-.04-17.33-.43-.82-.06-1.59.05-2.13-.75l221.28-3.11Z"/>
        <polygon class="cls-1" points="489.6 419.39 495.75 419.49 508.32 440.03 508.32 420.11 514.56 419.39 514.56 451.07 507.6 450.6 495.36 431.39 495.36 451.07 489.6 451.07 489.6 419.39"/>
        <path class="cls-1" d="M435.74,419.05c8.7-.95,16.28,4.17,17.34,13.12,1.5,12.79-6,21.44-19.17,19.17-15.5-2.67-15.83-30.37,1.84-32.29ZM435.72,424.79c-5.83,1-7.14,8.08-6.54,13.03,1.32,11.01,16.06,11.33,17.22.05.79-7.66-1.66-14.62-10.68-13.08Z"/>
        <path class="cls-1" d="M265.92,428.99h-6.72c.57-5.69-10.72-5.47-11.06-1.65l.47,1.45c2.72,4.07,14.47,1.58,17.54,9.82,5.74,15.41-24.45,18.41-25.22,2.68l6.27-1.26c.82,6.19,8.04,8.27,12.43,4.03,2.92-6.24-6.16-6.02-10.16-7.5-5.2-1.92-9.14-5.91-6.68-11.75,3.94-9.38,23.4-7.5,23.13,4.18Z"/>
        <path class="cls-1" d="M331.68,451.07h-7.2l-2.45-7.14-12.61-.09-2.67,7.01-6.74.22,12.69-31.71,5.31.03,1.15.77,12.53,30.91ZM319.68,438.59l-3.85-11.04c-2.21,3.06-3.28,7.41-4.31,11.04h8.16Z"/>
        <path class="cls-1" d="M430.65,526.54c0,28.62-23.2,51.82-51.82,51.82s-51.82-23.2-51.82-51.82,23.2-51.82,51.82-51.82,51.82,23.2,51.82,51.82ZM429.7,526.55c0-28.09-22.77-50.86-50.86-50.86s-50.86,22.77-50.86,50.86,22.77,50.86,50.86,50.86,50.86-22.77,50.86-50.86Z"/>
        <polygon class="cls-1" points="372.48 419.87 372.48 445.79 388.32 445.79 388.32 451.07 366.24 451.07 366.24 419.87 372.48 419.87"/>
        <path class="cls-1" d="M227.08,326.79c-.87,1.2,5.37,9.53,6.5,10.95,7.81,9.85,17.63,17.49,28.99,22.85-9.36,3.51-17.94,8.85-25.73,15.08l-1.14-.68c0-.9,10.55-8.02,12.15-8.96,3.09-1.82,7.62-3.35,10.26-5.08.46-.3.87.06.62-1.07-14.54-6.49-25.76-19.19-34-32.52v-1.02c13.65-6.32,23.72-21.28,11.45-34.39.79-.67,2.18,1.15,2.64,1.68,10.81,12.43.9,27.48-11.73,33.16Z"/>
        <path class="cls-1" d="M519.45,365.07l-.56-1.35c10.05.66,19.97,3.35,30,4.31,19.71,1.89,34.79-3.39,42.89-22.39,5.44-12.75,8.29-31.74-1.37-43.14l.23-.71c13.77,13.41,6.5,42.82-4.57,55.9-16.82,19.88-44.63,9.42-66.62,7.37Z"/>
        <path class="cls-1" d="M415.55,302.88c.64.81,2.2,6.23,2.94,7.87,1.13,2.53,2.54,4.96,3.92,7.35-.69.5-9.38-1.55-11.28-1.48-.77.03-2.21-.04-2.09,1.16l9.99,26.87,13.46,12.34c-1.23.07-2.36-.44-3.58-.49-9.43-.41-19.55.17-28.84-.44-1.48-.1-3.79-.34-5.02-1.22l33.12.24-10.76-10.11-10.82-28.53c3.82-2.48,8.73-.44,12.95-.24l-5.76-14.4c.06-.08,1.66.95,1.78,1.09Z"/>
        <path class="cls-1" d="M120.01,388.67c-.12-.82,1.14-.51,1.67-.47,5.28.41,8.42.47,13.69-.72,30.17-6.81,36.41-41.19,22.16-65.36-5.74-9.74-10.87-12.41-20.86-16.58-.59-.25-1.51-.89-.11-.86,25.77,5.53,35.65,40.97,25.91,62.86-7.26,16.31-25.14,24.63-42.46,21.13Z"/>
        <path class="cls-1" d="M619.21,381.48c2.17.81,4.09,2.24,6.25,3.11,26.23,10.59,49.09-5.44,54.87-31.52,2.98-13.46,1.42-28.48-9.27-38.08l.23-.71c21.76,17.74,11.2,57.43-10.96,70.16-12.57,7.22-30.02,6.57-41.12-2.96Z"/>
        <path class="cls-1" d="M520.8,285.96c-.83,2.02-3.25,1.54-4.8,2.16-3.56,1.42-4.77,2.98-5.83,6.65l-8.57,67.99c-3.71-1.11-9.13-.48-12.61-1.54-.52-.16-1.16-.78-1.3-1.33l12.26,1.31.63-.67c2.43-18.3,3.83-36.79,6.37-55.07,1.28-9.21,1.41-20.25,13.86-19.49Z"/>
        <circle class="cls-1" cx="194.04" cy="444.7" r="3.54"/>
        <circle class="cls-1" cx="568.69" cy="444.7" r="3.54"/>
        <path class="cls-1" d="M492.96,183.23c1.71-2.07,4.19-3.3,6-5.27,8.19-8.9,3.88-17.19-6-21.6,3.43,5.24.33,21.61-6.96,21.64-3.99.01-8.74-4.58-10.22-8.07-3.64-8.62,3.92-15.36,9.49-20.76-20.33-13.86-37.96,5.43-33.95,26.5,1.21,6.37,7.76,19.94,13.94,22.54,5.4,2.28,14.01,1.58,19.63.25,20.44-4.83,41.36-13.94,61.82-19.3,7.06-3.86,8.68-11.06,4.43-17.87-5.12-8.2-13.09-7.95-21.35-4.81-2.99,1.14-5.6,2.95-8.52,4.19,5.87-11.06,17.26-17.3,28.33-8.4,6.41,5.16,9.92,12.04,6.17,20.11-.91,1.96-2.57,3.18-3.3,5.1,12.53-2.9,27.63-5.31,38.63,2.89,10.92-5.99,27.24-7.83,38.31-1.35s16.91,16.02,18.09,28.95c2.06,22.49-30.16,30.27-33.59,6.48,5.76,5.29,11.99,11.76,19.68,5.53,8.81-7.13,11.35-16.57,3.82-25.92-9.63-11.96-26.12-11.4-39.83-8.41,3.53,3.56,6.26,6.82,7.65,11.78,5.79,20.6-8.01,39.08-29.91,36.15l-9.42-2.33c23.16,1.68,46.89-28.67,21.73-44.56-8.14,2.29-15.9,5.83-23.89,8.57-29.23,10.04-83.79,26.59-108.97,1.91-12.47-12.23-13.03-35.1-1.7-48.25,9.71-11.26,29.02-12.96,36.81,1.14,22.45-1.29,27.62,31.34,3.04,33.19ZM489.08,154.96c-7.27-.36-15.38,14.4-6.95,17.75,9.26,3.68,10.49-12.38,6.95-17.75ZM578.88,183.72c-32.79-6.39-60.88,13.18-91.29,20.31-1.88.44-3.81.62-5.68,1.05-.53.12-1.55,0-1.43.72,7.93.4,15.82.63,23.75,0,23.28-1.86,49.63-11.75,71.4-20.28,1.04-.41,2.7-.77,3.24-1.79Z"/>
        <path class="cls-1" d="M193.92,231.24l-9.42,2.33c-26.77,4.53-40.33-29.16-22.29-46.77.4-.39.69-.42.51-1.16-9.03-1.86-18.11-3.07-27,.11-12.88,4.62-21.56,18.99-11.41,30.85,8.64,10.1,14.6,5.82,22.57-2.17-3.33,24.02-34.86,16.04-32.58-6.91,1.21-12.23,5.93-20.68,16.12-27.56,11.14-7.52,27.49-5.96,38.8.4,10.7-8.1,25.46-5.87,37.67-2.89-.92-2.13-2.52-3.68-3.44-5.91-3.27-7.97.11-14.21,6.32-19.29,10.67-8.73,22.23-2.87,27.36,8.41-8.26-4.97-19.87-10.41-27.55-1.4-6.21,7.28-4.42,17.26,4.74,20.62,19.51,4.87,39.29,14,58.72,18.56,6.09,1.43,15.05,2.26,20.6-1.21,4.96-3.1,10.86-15.92,11.93-21.67,3.3-17.73-9.7-38.63-29.4-28.44-.98.51-4.51,2.01-3,3.19,9.05,6.58,14.27,18.08,3.29,25.91s-15.43-12.93-11.48-19.87c-3.86,1.46-8.75,5.57-9.75,9.68-1.98,8.1,4.84,12.29,9.75,17.19-23.98-2.04-19-34.73,3.28-33.19,5.53-12.27,22.05-12.52,31.72-4.92,13.71,10.78,15.32,35.03,5.04,48.64-21.64,28.66-76.76,12.71-105.09,2.93-9.13-3.15-18.06-7.21-27.25-10.01-9.35,6.45-13.83,15.99-8.27,26.81s16.88,18.29,29.53,17.76ZM269.11,154.95c-2.74,4.16-3.45,13.87.97,17.17,3.01,2.25,6.86.71,8.43-2.47,2.51-5.09-3.61-14.42-9.4-14.71ZM276.96,205.32c-32.62-5.66-61.39-28.29-96-21.6,1,1.2,3.2,1.71,4.68,2.28,24.4,9.32,49.25,19.43,75.72,20.28l15.59-.95Z"/>
        <path class="cls-1" d="M660.48,322.43c-15.19-13.25-27.38-7.54-33.95,9.96-4.71,12.55-8.27,30.84.84,42.12.1.33-.46.35-.71.23-1.84-.83-5.11-8.08-5.66-10.18-3.38-12.96,4.07-44.62,18.24-49.71,6.97-2.5,18.23.25,21.25,7.57Z"/>
        <path class="cls-1" d="M130.56,317.15c-10.06-2.58-21.55-.6-24.61,10.67-3.2,11.77,3.33,34.84,11.41,44.06,2.85,3.25,6.03,4.87,9.37,7.19-10.29-2.33-15.68-12.39-18.86-21.7-3.54-10.37-7.73-29.01,1.08-37.59,4.81-4.69,16.21-7.36,21.61-2.63Z"/>
        <path class="cls-1" d="M424.42,526.67c0,25.1-20.35,45.45-45.45,45.45s-45.45-20.35-45.45-45.45,20.35-45.45,45.45-45.45,45.45,20.35,45.45,45.45ZM422.46,526.67c0-24.02-19.48-43.5-43.5-43.5s-43.5,19.48-43.5,43.5,19.48,43.5,43.5,43.5,43.5-19.48,43.5-43.5Z"/>
        <path class="cls-1" d="M391.05,548.18c2.67,3.13.33,8.52,5.65,10.43,1.39.5,3.95-.06,3.62,1.42-2.32,1.19-7.72-1.4-8.89-1.28-.36.04-1.63,1.55-2.62,2-6.15,2.8-12.22-3.75-10.93-9.98.46-2.23,2.84-4.06,3.27-6.32.03-1.07-1.48-7.18-2.04-8.09-.84-1.38-4.19-2.75-5.53-3.83-1.06-1.6-.93-15.76-1.09-18.83-.37-7.12-1.21-14.44-1.46-21.59-.07-1.95-.43-4.94.74-6.5l11.15,55.08c.21,5.06,5.75,4.66,8.13,7.46ZM377.76,530.75v-1.19s-.47-.5-.47-.5l-1.45-.23v1.92s1.92,0,1.92,0ZM383.88,547.63c-4.9,1.95-4.94,7.87-.71,10.6l4.22.15,1.41-.99c1.77-1.81,1.74-4.11,1.23-6.5l-.74-1.18-5.41-2.08Z"/>
        <path class="cls-1" d="M372.58,533.05c.16.28,3.64,1.54,2.78,2.49-3.71.31-5.6,2.98-7.07,6.06,1.16,2.6.89,7.82,2.25,9.92.44.68,2.21.7,1.24,2.28-1.52,1.81-3.94.38-5.23.59-.51.08-1.08.86-1.75,1.07-8.56,2.71-13.78-8.98-5.7-13.38,2.19-1.19,5-1.28,6.91-2.69,2.28-1.69,4.26-6,6.24-8.16l.34,1.82ZM361.79,543.33c-1.75.4-4.08,3.12-4.1,4.93.32,1.93.73,4.07,2.77,4.83,4.6,1.46,8.9-3.36,6.68-7.64l-3.09-2.2c-.76-.1-1.51-.09-2.26.08Z"/>
        <path class="cls-1" d="M380.65,527.39l-1.22-11.06,14.17-26.86c-.14,2.18-.79,4.41-1.42,6.5-2.54,8.49-6.69,21.77-10.21,29.63-.3.67-.48,1.59-1.32,1.79Z"/>
      </g>
    </clipPath>
  </defs>
</svg>